<?xml version="1.0" encoding="UTF-8"?>
<svg viewBox="0 0 1400 1400" version="1.1" xmlns="http://www.w3.org/2000/svg" xmlns:xlink="http://www.w3.org/1999/xlink">
    <g id="Page-1" stroke="none" stroke-width="1" fill="none" fill-rule="evenodd">
        <g id="W" transform="translate(73.000000, 524.000000)" fill="#FFFFFF">
            <path d="M807,0 L1225,0 L1251,345 L770,345 L785.127474,203.946523 C802.422396,179.980362 811.713238,161.998187 813,150 C814.286762,138.001813 808.776705,120.730724 796.469828,98.1867352 L807,0 Z" id="b"></path>
            <polygon id="a" points="37 5.98479599e-16 455 0 481 345 0 345"></polygon>
        </g>
        <g id="Logo" transform="translate(37.000000, 451.000000)">
            <path d="M870.565172,0.0162244411 L1225.33236,0.0162244411 C1266.56918,0.607796791 1300.08322,43.6421009 1302.93768,88.7080204 L1325.11063,421.302255 C1327.96508,466.368175 1293.88467,498.316005 1247.5053,498.907577 L848.392223,498.907577 C802.012856,499.499149 767.932448,467.681622 770.786901,421.302255 L779.560133,285.304121 L812.848243,255.987838 C834.448654,236.963623 834.093211,203.187949 812.097221,184.622526 L787.400488,163.777514 L792.95985,77.6215459 C795.814303,31.2421794 829.328352,-0.575347908 870.565172,0.0162244411 Z M823.028773,317.331229 L820.812813,349.704107 C818.47357,387.7123 846.402686,413.786971 884.410879,413.302174 L884.410879,413.302174 L1211.48665,413.302174 C1249.49484,412.817376 1277.42396,386.635922 1275.08471,349.704107 L1275.08471,349.704107 L1272.92927,318.42459 C1263.02637,349.240171 1247.15216,379.800703 1209.89116,380.27572 L1209.89116,380.27572 L886.006371,380.27572 L884.880264,380.282243 C847.818854,380.23822 832.871158,349.240171 823.028773,317.331229 L823.028773,317.331229 Z M954.544612,81.3828351 L953.214235,81.3828351 C946.118891,81.3828351 940.409357,83.6555623 936.085632,88.2010169 C931.761907,92.7464714 929.600044,98.6777353 929.600044,105.994808 C929.600044,112.203234 931.318448,117.413877 934.755255,121.626737 C938.192062,125.839598 942.460355,127.946028 947.560133,127.946028 C949.555698,127.946028 952.271885,127.558001 955.708692,126.781948 C959.145499,126.005895 961.75082,125.617868 963.524656,125.617868 C969.44254,125.617868 972.435493,132.87603 972.503514,147.392355 L972.504701,147.901682 L972.504701,240.030285 C972.504701,255.10789 969.511353,262.646693 963.524656,262.646693 C961.75082,262.646693 959.145499,262.258667 955.708692,261.482613 C952.271885,260.70656 949.555698,260.318534 947.560133,260.318534 C942.460355,260.318534 938.192062,262.424964 934.755255,266.637824 C931.318448,270.850684 929.600044,276.061327 929.600044,282.269753 C929.600044,289.586826 931.761907,295.462658 936.085632,299.897247 C940.306411,304.226252 945.847794,306.44229 952.709782,306.545361 L953.214235,306.549132 L956.196648,306.549132 C960.659645,306.522422 967.869498,305.968412 977.826208,304.886161 C988.025765,303.777514 995.786297,303.22319 1001.1078,303.22319 C1007.96756,303.22319 1014.34012,303.418069 1020.22548,303.807828 L1021.39605,303.888378 L1045.01024,305.551349 C1054.54461,306.216538 1063.63552,306.549132 1072.28297,306.549132 C1099.5557,306.549132 1120.7863,300.728733 1135.97477,289.087935 C1151.16324,277.447137 1158.75747,261.094587 1158.75747,240.030285 C1158.75747,230.717647 1156.65104,221.737602 1152.43818,213.090152 C1146.97302,201.941219 1135.79637,192.947561 1118.90825,186.109179 L1118.18098,185.817425 L1109.86612,182.491483 C1137.13885,176.061327 1150.77521,160.651128 1150.77521,136.260884 C1150.77521,124.509221 1147.11667,114.032502 1139.7996,104.830729 C1132.48253,95.6289548 1122.94816,89.4759614 1111.1965,86.3717486 C1099.44483,83.2675357 1086.25193,81.7154293 1071.61778,81.7154293 C1062.11842,81.7154293 1054.8263,81.9256424 1049.74142,82.3460685 L1049.33397,82.3806178 L1026.71756,84.3761832 C1021.61778,84.8196422 1014.74417,85.0413716 1006.09672,85.0413716 C995.318202,85.0413716 986.635507,84.7269982 980.048636,84.0982514 L979.48918,84.0435889 L955.874989,81.7154293 C955.677896,81.7154293 955.305609,81.6278325 954.758129,81.4526388 L954.544612,81.3828351 Z M1051.66213,207.43605 C1065.18763,207.43605 1076.05237,210.207669 1084.25636,215.750906 C1092.46035,221.294143 1096.56235,228.611216 1096.56235,237.702126 C1096.56235,245.684387 1093.51357,252.114542 1087.41601,256.992591 C1081.31845,261.87064 1073.39162,264.309664 1063.63552,264.309664 C1050.77521,264.309664 1041.90603,262.702126 1037.02798,259.487048 C1032.24558,256.335011 1029.80749,250.67882 1029.71372,242.518476 L1029.71091,242.025851 L1029.71091,217.746471 C1029.71091,213.755341 1030.48696,211.039154 1032.03907,209.597913 C1033.54267,208.20171 1036.60693,207.481793 1041.23186,207.438161 L1041.6843,207.43605 L1051.66213,207.43605 Z M1053.99029,122.62452 C1077.05016,122.62452 1088.58009,130.052458 1088.58009,144.908334 C1088.58009,152.003678 1085.19871,157.65778 1078.43596,161.87064 C1071.67322,166.0835 1062.52687,168.18993 1050.99694,168.18993 L1040.68652,168.18993 C1036.25193,168.18993 1033.48031,167.746471 1032.37166,166.859553 C1030.65158,165.784501 1029.76548,163.145737 1029.71335,158.943261 L1029.71091,158.544698 L1029.71091,138.921638 C1029.71091,131.604565 1032.03907,126.837381 1036.69539,124.620086 C1039.7996,123.289709 1045.56457,122.62452 1053.99029,122.62452 Z" id="B" fill="#006994"></path>
            <path d="M650.388631,118.633389 L650.388631,165.750906 L582.206812,165.750906 C576.058939,165.750906 571.21794,170.994652 571.708204,177.122945 L578.360088,260.271504 L578.388051,260.5688 C578.964448,265.897079 583.467485,269.963766 588.858697,269.963766 L650.388631,269.963766 L650.388631,327.05911 C650.388631,336.123998 661.079225,340.954191 667.881883,334.96286 L788.724455,228.532705 C793.552782,224.280234 793.47333,216.730377 788.556579,212.580459 L667.714007,110.584894 C660.866492,104.805339 650.388631,109.672825 650.388631,118.633389 Z" id="A" fill="#009475"></path>
            <path d="M99.9451717,0.00811222055 L454.712356,0.00811222055 C495.949176,0.59968457 529.463224,43.6339887 532.317677,88.6999082 L554.490626,421.294143 C557.345079,466.360063 523.264671,498.307892 476.885305,498.899465 L77.7722227,498.899465 C31.3928561,499.491037 -2.68755196,467.67351 0.166901143,421.294143 L22.3398501,77.6134337 C25.1943032,31.2340672 58.7083516,-0.583460129 99.9451717,0.00811222055 Z M52.4087735,317.323116 L50.192813,349.695995 C47.8535701,387.704188 75.7826863,413.778859 113.790879,413.294061 L113.790879,413.294061 L440.866648,413.294061 C478.874841,412.809264 506.803957,386.62781 504.464714,349.695995 L504.464714,349.695995 L502.309275,318.416478 C492.406369,349.232059 476.532164,379.792591 439.271157,380.267608 L439.271157,380.267608 L115.386371,380.267608 L114.260264,380.274131 C77.1988541,380.230108 62.2511583,349.232059 52.4087735,317.323116 L52.4087735,317.323116 Z M388.415238,81.7154293 C384.424107,81.7154293 379.656923,82.1588883 374.113686,83.0458062 C365.909695,84.3761832 359.47954,85.0413716 354.82322,85.0413716 C350.734268,85.0413716 344.817629,84.5191757 337.073305,83.4747837 L336.36424,83.3784005 C328.271114,82.269753 322.118121,81.7154293 317.90526,81.7154293 C311.475105,81.7154293 306.264462,83.4892652 302.273331,87.0369371 C298.2822,90.5846089 296.286635,95.2409282 296.286635,101.005895 C296.286635,106.105673 298.393065,110.207669 302.605926,113.311882 C304.601491,114.420529 306.042733,115.418312 306.929651,116.30523 C307.816569,117.192148 308.260028,118.522525 308.260028,120.296361 C308.260028,123.563953 304.514717,128.650696 297.024095,135.556591 L296.619229,135.92829 L248.393065,180.495917 L248.393065,132.934941 C249.058254,128.278622 251.164684,125.950463 254.712356,125.950463 C256.359489,125.950463 257.624252,126.046055 258.506645,126.23724 L258.703487,126.283057 L261.696835,126.283057 C271.452932,126.283057 276.330981,119.631172 276.330981,106.327403 C276.330981,98.7886 274.335416,92.8019038 270.344285,88.367314 C266.353154,83.9327242 261.031646,81.7154293 254.379761,81.7154293 C250.166901,81.7154293 243.847611,82.269753 235.42189,83.3784005 C226.996169,84.4870479 220.676879,85.0413716 216.464019,85.0413716 C211.142511,85.0413716 203.437411,84.4870479 193.348719,83.3784005 C183.260028,82.269753 175.776657,81.7154293 170.898608,81.7154293 C163.581535,81.7154293 157.761136,83.8772918 153.437411,88.2010169 C149.113686,92.5247419 146.951824,98.4560058 146.951824,105.994808 C146.951824,112.203234 148.670227,117.413877 152.107034,121.626737 C155.543841,125.839598 159.812134,127.946028 164.911912,127.946028 C166.907478,127.946028 169.623664,127.558001 173.060471,126.781948 C176.497278,126.005895 179.1026,125.617868 180.876436,125.617868 C185.311025,125.617868 188.082644,128.500352 189.191291,134.265318 C189.623934,136.212212 189.845532,140.586126 189.856084,147.387061 L189.85648,240.030285 C189.85648,255.10789 186.863132,262.646693 180.876436,262.646693 C179.187068,262.646693 176.743518,262.294742 173.545787,261.590838 L173.060471,261.482613 C169.623664,260.70656 167.018342,260.318534 165.244506,260.318534 C159.922999,260.318534 155.543841,262.369531 152.107034,266.471527 C148.670227,270.573522 146.951824,275.839598 146.951824,282.269753 C146.951824,289.586826 149.169118,295.462658 153.603708,299.897247 C158.038298,304.331837 163.803265,306.549132 170.898608,306.549132 C175.776657,306.549132 183.038298,305.994808 192.683531,304.886161 C202.328764,303.777514 209.701269,303.22319 214.801047,303.22319 C219.235637,303.22319 223.115903,303.334055 226.441846,303.555784 C228.88087,303.777514 233.537189,304.331837 240.410804,305.218755 C246.3975,306.105673 250.942954,306.549132 254.047167,306.549132 C260.920781,306.549132 266.353154,304.331837 270.344285,299.897247 C274.335416,295.462658 276.330981,289.586826 276.330981,282.269753 C276.330981,268.522525 271.452932,261.64891 261.696835,261.64891 C260.477322,261.64891 259.537282,261.742068 258.876713,261.928382 L258.703487,261.981505 L256.707921,261.981505 C255.821003,262.203234 255.266679,262.314099 255.04495,262.314099 C251.361217,262.314099 249.159842,260.090562 248.440824,255.643489 L248.393065,255.32962 L248.393065,232.380618 L268.016125,216.0835 L271.342067,212.757558 C272.450715,211.64891 273.670227,211.094587 275.000604,211.094587 C276.523425,211.094587 279.220174,214.509647 283.090849,221.339768 L283.31546,221.737602 L300.942954,252.336272 C304.490626,258.544698 306.264462,262.868423 306.264462,265.307447 C306.264462,267.968201 304.82322,270.407225 301.940737,272.62452 C295.732311,277.724298 292.628098,282.824077 292.628098,287.923855 C292.628098,293.245363 294.623664,297.679953 298.614795,301.227624 C302.605926,304.775296 307.483974,306.549132 313.248941,306.549132 C317.240072,306.549132 323.171336,305.994808 331.042733,304.886161 C338.91413,303.777514 344.845393,303.22319 348.836524,303.22319 C355.710138,303.22319 363.470671,303.888378 372.118121,305.218755 C377.883087,306.105673 382.872001,306.549132 387.084861,306.549132 C394.401934,306.549132 400.277766,304.331837 404.712356,299.897247 C409.146945,295.462658 411.36424,289.586826 411.36424,282.269753 C411.36424,267.635607 405.377544,260.318534 393.404152,260.318534 C391.630316,260.318534 389.135859,260.70656 385.920781,261.482613 C382.705704,262.258667 380.432977,262.646693 379.1026,262.646693 C374.062819,262.646693 367.290694,255.392502 358.786225,240.88412 L358.481757,240.362879 L334.867566,200.118977 L326.220116,184.819642 C323.781092,180.606782 322.56158,177.835163 322.56158,176.504786 C322.56158,174.111781 325.763199,170.117967 332.166437,164.523342 L332.539407,164.1988 L364.801047,135.92829 L370.787744,131.27197 C375.665792,127.502569 379.435194,125.617868 382.095948,125.617868 C383.648054,125.617868 385.809917,126.005895 388.581535,126.781948 C391.353154,127.558001 393.515016,127.946028 395.067123,127.946028 C399.723442,127.946028 403.770005,125.673301 407.206812,121.127846 C410.64362,116.582392 412.362023,111.094587 412.362023,104.664432 C412.362023,97.5690878 410.200161,91.9704182 405.876436,87.8684226 C401.55271,83.7664271 395.732311,81.7154293 388.415238,81.7154293 Z" id="K" fill="#BE5103"></path>
        </g>
    </g>
</svg>